<svg xmlns="http://www.w3.org/2000/svg" viewBox="0 0 502.7 363.5"><title>Asset 1</title><path d="M393.09,259.65c2-8.66,5.78-15.43,15.83-16.77,4.52-.61,5.39-3.39,1.73-6.7-4.85-4.38-9.88-8.57-14.57-13.11-6.49-6.27-9.48-13.46-2.64-22.93-25.82.67-41.43-15.11-57.7-29.24-4.27-3.71-5.37-9.33-1.07-15a11.71,11.71,0,0,0,1.77-8.84c-2-7.82-5-15.4-7.64-23.35l-16.18,3.43c1.4-3.31,1.74-6.18,3.37-7.56,4-3.42,8.78-6,13-9.21a35.67,35.67,0,0,1,27.91-7.45c2.35.32,5.6-1.77,7.57-3.66,9.37-9,20.07-13.95,33.1-11,3.79.85,7.29,3.67,10.54,6.1,6.7,5,13.15,10.4,20.87,16.56l1.62-10.38,2.38-.59c.79,2.75,2.7,5.73,2.17,8.2-1.69,7.93,3.71,10.08,9.57,13.47-.57-12.09,6.25-13.57,16.09-10.74l-.08-2.94-15.93-6.19,11.58-9.24-1-1.88c-7.92,0-16.53,7.65-24.21-1.5,6.61-5.44,9-15,18.74-16.49C449.08,76,448,79,447.77,82a5,5,0,0,0,2.4,4c5.89,2.53,12,4.59,17.94,6.95a16.65,16.65,0,0,1,3.26,2.41,28.35,28.35,0,0,0,2.42-3.7c2.65-5.84,7.09-6.09,11.87-3.41C490.68,91,491,96,488.05,100c-3.93,5.42-3.68,10,.29,15.2a40.08,40.08,0,0,0,5-2.3c4.16-2.66,8.64-1.14,9.28,2.46.53,3-2.25,8.43-5,9.84-12.68,6.37-24.28,12.35-33.38,25-12.16,16.91-9.34,33.78-7,51.36,1.07,8,12.37,18.18,16.83,18.21l7.1,19.5c-5.9,7.75-4.43,16.76-2,25.44,3.19,11.31-.19,17.51-11.88,20.42a8.37,8.37,0,0,0-4.57,4c-1.41,2.62-1.8,5.78-3,8.52-1.87,4.16-2.31,11-8.52,9.83-5.43-1.06-10.47-4.82-15.28-8-2.12-1.4-3.22-4.33-6-8.3-1.4,4.8-2.45,7.92-3.21,11.11-2.16,9.05-7,12.18-15.92,10.11-15.63-3.62-20.18-14.6-21.23-30.87-.47-7.23,2.34-14.68,3.66-22-.71,12-2.1,24.09,2.8,35.63,2.83,6.66,7.82,10.57,15.12,11.9,6.87,1.25,7.75-4.45,11-8,3.72-4,3.85-7.36.67-11.11-3.42-4-6.78-8.33-13.29-4.86-3.25,1.73-7.05,2.42-11.61,3.91,1.21-14-4.36-27.55,8.14-37.81l-2.43-1.65ZM429.47,203l-17.12-20.22-5,5.35c5.49,6.76,10.33,13.08,15.64,19,1.23,1.38,4,1.37,6.08,2,.09-2.1.18-4.2.29-6.28,7.81,2.47,7.47-2,6.24-7.29,4,3.4,6.77,2.12,8.62-2.36s-1.33-10.35-6-12.31l2.07-4.12-7.23-2-4.89-7.14-2.63.73c.33,2.59.13,5.4,1.1,7.72,2.77,6.64,6,13.09,9.08,19.61-4-5.9-7.88-11.93-12.17-17.62-1.05-1.39-3.54-1.7-5.37-2.51-.29,2.13-1.06,4.34-.73,6.36.25,1.54,2.06,2.76,2.91,4.28C423.45,191.82,426.43,197.44,429.47,203Zm-87.08-61.71-1.71,1.54c4.47,12.28-2.86,27.4,11.32,37.47,13.31,9.44,27.39,15.62,44.48,14.44-1-2.55-2.52-5.16-4.37-5.42-15.1-2.17-27.58-9.88-39.77-18.23-2.92-2-5.34-4.73-9.31-8.32,5.63-2.66,9.47-5,13.63-6.34,15.62-5,31.26-10,47.08-14.32,9.08-2.48,18.48-3.86,27.8-5.27,1.72-.26,4.33,1.3,5.45,2.81.57.78-1,3.49-2,5-4,5.92-8.19,11.72-12.57,18,10.89,1.73,34.06-18.78,34.19-29.85l-12.11,1.36c-1.76-6.84-34.48-34-41-33.91,0,2.48-.38,5,.06,7.43,2.65,14.52-9.62,26.09-24.08,22.81a61.57,61.57,0,0,0-15.52-2c-2.58.09-6.44,2.52-7.18,4.74-.67,2,1.39,6.33,3.48,7.6,3.11,1.89,7.31,2,11.63,3-3.26,6.09-7.78,4.57-12.26,3.11C353.87,145.12,348.13,143.22,342.38,141.33ZM499.73,115c-6.29.65-11.57,2.88-14.76,1.17-5.76-3.08-2.62-9.31-1.62-14.31.28-1.42,1.43-2.63,2-4,2.18-5.54-.2-8.39-7.13-8.17l-.94,20.2-2.82.61c-2.19-3.7-4.32-7.43-6.58-11.08-3.65-5.91-6.45-5.81-11.18,1.18,1.63,1.28,3.88,2.37,5.1,4.17,2,2.93,3.31,6.31,4.91,9.5-2.87-.21-5.93-1.12-8.57-.44s-5,3-7.53,4.54c1.89,1.56,3.55,3.81,5.71,4.49,2.54.8,5.53,0,8.28.31,4.68.5,5.47,3.61,3.13,6.88-7.4,10.35-14.73,20.8-23,30.49-4.78,5.63-3.48,9.37,1,14.25,1-1.41,1.85-2.33,2.48-3.36,7.12-11.64,14-23.42,21.43-34.86a25.06,25.06,0,0,1,9.06-8.63c5.89-3,12.58-4.32,18.61-7C498.78,120.17,499,116.81,499.73,115Zm-82.09,46c1.11-6.07-1.88-8.66-7-8.13a23.41,23.41,0,0,0-9.93,3.62c-2.88,1.86-4.61,5-9.05,2.76-1.18-.58-6.18,2.79-6.05,4,.58,5.48,1,11.92,4.13,15.9,2.69,3.4,12,6.61,13.23,5.26C409.18,177.43,418.83,172,417.64,160.94Zm10.12,100.82c2.5,2,3.82,4,5,3.88,10.41-.73,20.85-1.43,31.16-2.93,7.39-1.08,9.89-6.9,10.09-13.71.24-7.81-3.94-10.29-11-6.72-5.54,2.8-11.16,5.45-16.59,8.45C440.45,254,434.64,257.68,427.76,261.76Zm4.88-44.09c1-.77,1.88-1.63,2.9-2.31,3.94-2.63,8.27-4.82,11.73-8,1.64-1.49,1.82-4.75,2.23-7.28.09-.57-1.59-1.43-2.46-2.15-.81,1.55-1.37,3.34-2.5,4.6A26.55,26.55,0,0,1,440,206c-2.64,1.88-6.11,3.18-7.78,5.69-5.14,7.73-9.6,15.91-14.3,23.88,4.07,1.65,31.75-15,36.21-22.17C449.19,210.26,449.19,210.26,432.64,217.67Zm32.2,2.46c-14.15-1.2-42.2,16.92-42.07,26.6Zm-41.55,36.55,46.36-27.76-.82-2.26c-2.9.63-6.18.59-8.63,2-10.5,6.08-20.93,12.33-31,19.1C426.59,249.52,425.39,253.39,423.29,256.68Zm24.63,29.61-12.43,8.49c4.35,2.51,8.56,6.55,13.09,6.95,2.62.23,5.76-5.41,8.66-8.41Zm-26.61-68.52,2.5-1.28c-.57-2.27-.5-5-1.82-6.7a178.48,178.48,0,0,0-13.41-14.92c-1.22-1.23-3.66-1.24-5.54-1.81.07,1.78-.58,4.2.33,5.25C409.16,205,415.29,211.32,421.31,217.77ZM401.2,262.09c10.62.86,10.59.84,13.66-5.85.44-1,1.61-1.58,2.17-2.51,1-1.72,1.85-3.56,2.76-5.35-2.58-.62-6.6-2.57-7.48-1.62C408.42,251,405.44,256,401.2,262.09ZM383,114.16c.05-1,.52-2.29.07-3-1.39-2.12-3.13-4-4.73-6-1.25,2.42-3,4.73-3.57,7.3-.41,1.73.47,4,1.29,5.73a40,40,0,0,0,3.63,5.46,49.32,49.32,0,0,0,3.21-5.75C383.34,116.84,383,115.42,383,114.16Zm40,108.56-22.23-20.39C402.38,212,414.13,222.5,423,222.71ZM348.3,132.24c2.68-4.59.18-12.27-3.73-12.8a5.39,5.39,0,0,0-3.82,1.48c-.5.46-.3,2.42.29,3.16C343.25,126.86,345.75,129.42,348.3,132.24Z" fill="#006"/><path d="M342.38,49.62c5.08,6,8.76,11.19,13.22,15.52s9.65,7.78,15.31,12.24V35.45c5.48,9.17,9.17,17.21,14.57,23.86,5.25,6.47,12.25,11.52,20.21,18.77,1.38-6.83,2.47-11.13,3.07-15.49.66-4.84-.77-10.23,5.85-12.7,1.24-.46,1.29-5,1.31-7.71.1-14.25,0-14.25,13.88-19.44-1.71-3.58-3.63-7-5-10.63-.83-2.25-1.92-6.13-.92-7A24.21,24.21,0,0,1,434,0c1-.24,3.15,3.63,4.46,5.8.7,1.17.73,2.74,1.51,5.95,2.6-3.19,4.34-5.1,5.82-7.2,3.41-4.85,7.8-5.7,12.38-2.33,5,3.67,1,7-1.19,10.19-1.21,1.78-2.36,3.6-4.7,7.2,5.1-.69,8.16-1.22,11.24-1.48,4.16-.36,8,.52,8.27,5.51.23,4.34-.46,7.94-6.32,9.42-5.37,1.36-10.54,4.62-15,8-5.27,4-4.68,10-3.58,16a9.27,9.27,0,0,1-1.62,6.42C439.85,70.87,434.07,78,427.84,86c-8.2-9.26-9.07-21.71-13.71-34.83l-3.19,32.26a77.28,77.28,0,0,1-34.85-31l-2.26,1.11,5.39,25.24c-6.85,5.45-8.41,5.34-15.88-1.51-4.25-3.89-8.64-7.62-13-11.42l-1.62,1c2.12,4.5,3.56,9.53,6.55,13.35,3.42,4.37,2.95,7-1.32,9.8C347.44,85.35,338.43,59.23,342.38,49.62ZM426.92,78.5c10.24-10.41,19-19.56,16.84-34.2-.26-1.76.58-5.24,1.32-5.36,7.48-1.19,9.88-11.25,18.56-10.41,1.26.12,2.8-2.65,4.21-4.09-1.87-1-3.78-2.92-5.59-2.82-4.42.24-10,4.91-12.55-1.1C448.6,18,453,13.27,454.21,9.34c.55-1.72-.45-3.93-.75-5.92-2,.62-4.77.65-5.72,2-1.65,2.34-1.86,5.64-3.24,8.24-.8,1.52-2.89,3.58-4.06,3.38a7.17,7.17,0,0,1-4.68-3.73c-1.21-2.86-1.41-6.14-2-9.2-7.79,0-8.49,1-5.61,7.32,1.13,2.49,1.6,5.43,3.21,7.52,5.27,6.83,1.17,7.6-4.54,7.59-6,0-8.9,3.1-9.91,9.91,5.39-.72,10-1.79,14.54-1.77,2.27,0,6.38,1.87,6.48,3.14.61,7.81.3,15.7.3,23.56-2.41-5.86-2.8-11.79-4.22-17.46-.49-2-3.86-4.86-5.39-4.56-3,.57-7.3,2.55-8,4.89C416.91,56.06,421.2,66.74,426.92,78.5Z" fill="#006"/><path d="M342.21,98.46H319.52A17.15,17.15,0,0,1,342.21,98.46Z" fill="#006"/><path d="M329.65,71.75l18.69,19.68C339,90,330,81.09,329.65,71.75Z" fill="#006"/><path d="M342.38,141.33c5.75,1.89,11.49,3.79,17.24,5.66,4.48,1.46,9,3,12.26-3.11-4.33-1-8.52-1.09-11.63-3-2.09-1.27-4.16-5.57-3.48-7.6.74-2.22,4.6-4.65,7.18-4.74a61.57,61.57,0,0,1,15.52,2c14.46,3.27,26.73-8.29,24.08-22.81-.44-2.4-.06-5-.06-7.43,6.49-.05,39.21,27.07,41,33.91l12.11-1.36c-.13,11.07-23.3,31.58-34.19,29.85,4.39-6.23,8.57-12,12.57-18,1-1.54,2.61-4.26,2-5-1.12-1.52-3.73-3.08-5.45-2.81-9.32,1.41-18.72,2.79-27.8,5.27-15.82,4.33-31.45,9.32-47.08,14.32-4.16,1.33-8,3.68-13.63,6.34,4,3.59,6.39,6.32,9.31,8.32,12.19,8.35,24.67,16.06,39.77,18.23,1.85.27,3.37,2.88,4.37,5.42-17.09,1.18-31.17-5-44.48-14.44-14.19-10.07-6.85-25.19-11.32-37.47Z" fill="#fff"/><path d="M499.73,115c-.7,1.85-.94,5.22-2.41,5.88-6,2.73-12.72,4.08-18.61,7a25.06,25.06,0,0,0-9.06,8.63c-7.42,11.44-14.31,23.23-21.43,34.86-.63,1-1.43,1.95-2.48,3.36-4.45-4.88-5.74-8.62-1-14.25,8.22-9.68,15.55-20.14,23-30.49,2.34-3.28,1.55-6.38-3.13-6.88-2.75-.3-5.74.49-8.28-.31-2.16-.68-3.83-2.93-5.71-4.49,2.49-1.58,4.81-3.84,7.53-4.54s5.7.23,8.57.44c-1.6-3.19-2.92-6.58-4.91-9.5-1.22-1.8-3.48-2.89-5.1-4.17,4.74-7,7.53-7.1,11.18-1.18,2.26,3.66,4.39,7.39,6.58,11.08l2.82-.61.94-20.2c6.92-.22,9.3,2.63,7.13,8.17-.55,1.39-1.7,2.61-2,4-1,5-4.14,11.23,1.62,14.31C488.15,117.83,493.44,115.61,499.73,115Z" fill="#fff"/><path d="M417.64,160.94c1.19,11.09-8.45,16.48-14.65,23.4-1.21,1.35-10.55-1.86-13.23-5.26-3.15-4-3.55-10.42-4.13-15.9-.13-1.2,4.88-4.58,6.05-4,4.44,2.2,6.17-.89,9.05-2.76a23.41,23.41,0,0,1,9.93-3.62C415.76,152.28,418.74,154.87,417.64,160.94Z" fill="#fff"/><path d="M393.09,259.65l10.52-12.13,2.43,1.65c-12.5,10.26-6.93,23.81-8.14,37.81,4.55-1.49,8.36-2.18,11.61-3.91,6.52-3.47,9.87.83,13.29,4.86,3.18,3.75,3.06,7.09-.67,11.11-3.25,3.51-4.13,9.21-11,8-7.29-1.33-12.29-5.25-15.12-11.9-4.9-11.53-3.51-23.62-2.8-35.63Z" fill="#fff"/><path d="M427.76,261.76c6.88-4.08,12.69-7.72,18.67-11,5.43-3,11.05-5.65,16.59-8.45,7.05-3.57,11.22-1.09,11,6.72-.21,6.81-2.7,12.64-10.09,13.71-10.31,1.5-20.75,2.2-31.16,2.93C431.58,265.73,430.26,263.77,427.76,261.76Z" fill="#fff"/><path d="M432.64,217.67c16.55-7.41,16.55-7.41,21.45-4.26-4.46,7.16-32.14,23.82-36.21,22.17,4.7-8,9.15-16.15,14.3-23.88,1.67-2.51,5.14-3.82,7.78-5.69a26.55,26.55,0,0,0,4.59-3.45c1.13-1.26,1.69-3,2.5-4.6.87.73,2.55,1.58,2.46,2.15-.42,2.53-.6,5.79-2.23,7.28-3.46,3.15-7.79,5.34-11.73,8C434.52,216,433.61,216.9,432.64,217.67Z" fill="#fff"/><path d="M435.7,195.76c-3.06-6.52-6.3-13-9.07-19.61-1-2.32-.77-5.13-1.1-7.72l2.63-.73,4.89,7.14,7.23,2-2.07,4.12c4.63,2,7.86,7.72,6,12.31s-4.6,5.76-8.62,2.36Z" fill="#fff"/><path d="M464.84,220.13l-42.07,26.6C422.64,237.05,450.69,218.93,464.84,220.13Z" fill="#fff"/><path d="M423.29,256.68c2.1-3.29,3.3-7.16,5.92-8.92,10.06-6.77,20.49-13,31-19.1,2.45-1.41,5.73-1.38,8.63-2l.82,2.26Z" fill="#fff"/><path d="M447.92,286.3l9.32,7c-2.9,3-6,8.64-8.66,8.41-4.53-.4-8.74-4.43-13.09-6.95Z" fill="#fff"/><path d="M429.3,202.86l-.28,6.3c-2.07-.63-4.85-.62-6.08-2-5.3-5.91-10.15-12.24-15.64-19l5-5.35L429.47,203Z" fill="#fff"/><path d="M429.47,203c-3-5.6-6-11.22-9.12-16.78-.85-1.51-2.66-2.74-2.91-4.28-.33-2,.44-4.23.73-6.36,1.83.81,4.32,1.11,5.37,2.51,4.3,5.69,8.15,11.72,12.17,17.62l-.16-.17c1.23,5.26,1.58,9.77-6.24,7.29Z" fill="#fff"/><path d="M421.31,217.77c-6-6.45-12.15-12.81-17.93-19.46-.91-1.05-.26-3.47-.33-5.25,1.88.57,4.31.59,5.54,1.81A178.48,178.48,0,0,1,422,209.79c1.32,1.67,1.25,4.44,1.82,6.7Z" fill="#fff"/><path d="M401.2,262.09c4.24-6.08,7.22-11.12,11.11-15.33.88-1,4.9,1,7.48,1.62-.91,1.79-1.73,3.63-2.76,5.35-.56.94-1.73,1.55-2.17,2.51C411.78,262.93,411.82,262.95,401.2,262.09Z" fill="#fff"/><path d="M383,114.16c0,1.27.36,2.68-.09,3.76a49.32,49.32,0,0,1-3.21,5.75,40,40,0,0,1-3.63-5.46c-.82-1.77-1.7-4-1.29-5.73.61-2.57,2.33-4.88,3.57-7.3,1.6,2,3.34,3.88,4.73,6C383.51,111.86,383,113.15,383,114.16Z" fill="#fff"/><path d="M423,222.71c-8.83-.22-20.58-10.67-22.23-20.39Z" fill="#fff"/><path d="M348.3,132.24c-2.55-2.81-5-5.37-7.26-8.16-.58-.73-.78-2.69-.29-3.16a5.39,5.39,0,0,1,3.82-1.48C348.48,120,351,127.64,348.3,132.24Z" fill="#fff"/><path d="M65.59,200.81a56.78,56.78,0,0,1,11.2,20.64,69.41,69.41,0,0,1,3,23.71,69.07,69.07,0,0,1-5.17,23.65l-1.2,2.83c-.45.92-.95,1.82-1.44,2.73s-1,1.82-1.49,2.7-1.15,1.72-1.73,2.57l-.88,1.27a11,11,0,0,1-.93,1.24l-2,2.36A42.52,42.52,0,0,1,60.52,289c-.82.68-1.7,1.29-2.56,1.92-.43.31-.85.63-1.3.92l-1.39.8-1.39.79a9.84,9.84,0,0,1-1.43.72q-1.47.64-3,1.23A33.82,33.82,0,0,1,37,297.13a31.67,31.67,0,0,1-12-3.06,40.64,40.64,0,0,1-5.3-3A44.65,44.65,0,0,1,15,287.3,48,48,0,0,1,10.93,283c-.65-.75-1.19-1.58-1.79-2.37a24.36,24.36,0,0,1-1.7-2.44c-.51-.85-1.08-1.68-1.53-2.56L4.57,273a55.38,55.38,0,0,1-2.14-5.56L2,266c-.14-.48-.24-1-.36-1.45-.21-1-.51-1.93-.65-2.91l-.51-2.95-.3-3a55.77,55.77,0,0,1,.41-12A47.55,47.55,0,0,1,4,231.86c.46-.93.86-1.9,1.38-2.81L7,226.33c.61-.86,1.26-1.71,1.9-2.56a11,11,0,0,1,1-1.25l1.13-1.22A24,24,0,0,1,23,214.62a22.78,22.78,0,0,1,14,1.3,27.55,27.55,0,0,1,10.88,8.37,27.33,27.33,0,0,1,2,2.76c.3.49.63,1,.91,1.48l.79,1.53c.55,1,.9,2.1,1.35,3.15s.73,2.15,1,3.25a34.2,34.2,0,0,1,.64,13.39,31.32,31.32,0,0,1-4.82,12.78c-.34.48-.65,1-1,1.45l-1.14,1.37a13.76,13.76,0,0,1-1.27,1.35,13.63,13.63,0,0,1-1.43,1.28,18,18,0,0,1-7.06,3.6,16.84,16.84,0,0,1-8.14,0,17.53,17.53,0,0,1-7-3.57,21.91,21.91,0,0,1-4.75-5.63,21.5,21.5,0,0,1-2.54-6.78A23.2,23.2,0,0,1,17,242a18.32,18.32,0,0,1,4.14-5.87,12,12,0,0,1,7.21-3.29,10.85,10.85,0,0,1,7.5,2.28,13.26,13.26,0,0,1,4.23,5.82,14.08,14.08,0,0,1,.68,6.78,13.16,13.16,0,0,1-2.52,6.15,10.18,10.18,0,0,1-1.13,1.26,8.16,8.16,0,0,1-1.42,1.05,6.46,6.46,0,0,1-3.42.88,5.85,5.85,0,0,1-3.19-1.14,7,7,0,0,1-2-2.39l.83-.56a4.83,4.83,0,0,0,4.33,1.86,4,4,0,0,0,1.94-.94A6.3,6.3,0,0,0,35.48,252a10.08,10.08,0,0,0-.11-9.08,7.76,7.76,0,0,0-2.91-3,4.6,4.6,0,0,0-3.34-.57,5.1,5.1,0,0,0-2.8,1.85,12.19,12.19,0,0,0-2,3.72,15.12,15.12,0,0,0-.19,8.8,12.34,12.34,0,0,0,1.73,3.8,12.47,12.47,0,0,0,2.83,2.92,7.35,7.35,0,0,0,6.48,1.22c2.11-.67,4-2.32,5.63-4.93,3.22-5,4.19-11.84,2.94-18-.13-.78-.39-1.51-.58-2.27s-.48-1.48-.83-2.16l-.48-1c-.17-.34-.38-.66-.56-1A17.57,17.57,0,0,0,40,230.43a18.07,18.07,0,0,0-6.8-5.87c-5.26-2.64-11.69-1.58-16.59,2.62l-.9.81a6.85,6.85,0,0,0-.88.87l-1.71,1.9-1.57,2.05c-.52.69-.94,1.46-1.42,2.19a41.36,41.36,0,0,0-4.19,9.77,42.13,42.13,0,0,0-.22,21.67A33.65,33.65,0,0,0,10,276.56a18.65,18.65,0,0,0,1.57,2.28c.57.73,1.09,1.5,1.7,2.19a35.8,35.8,0,0,0,8.35,7.06,31.16,31.16,0,0,0,4.93,2.19l1.26.44c.43.13.87.19,1.3.3l1.3.28a6.87,6.87,0,0,0,1.3.21l2.62.23,2.61-.11a27.8,27.8,0,0,0,9.81-2.81,35.14,35.14,0,0,0,8.17-6,47.62,47.62,0,0,0,3.39-3.91c.54-.7,1.06-1.4,1.61-2.08a8.2,8.2,0,0,0,.76-1.08l.71-1.11c.47-.74,1-1.48,1.45-2.21s.85-1.55,1.28-2.33l1.28-2.33,1.09-2.44a72.54,72.54,0,0,0,5.58-20.75,80.34,80.34,0,0,0-.45-21.87,75,75,0,0,0-6.86-21.31Z" fill="#009245"/><path d="M137,183.65l-3,20.49-34-9L94.2,222l17.38.83-1.93,10.36-17.15-3.94L84.89,266l-20.38,1.72a314.11,314.11,0,0,0,15.65-48.5q3.87-16.53,5.19-40.57Q106.62,184.69,137,183.65Z" fill="#006837"/><path d="M157.52,231.18l-2.21,15.56L125,238.41l-4.6,20.33,15.41,1.36-1.5,7.84-15.26-3.73L113,292l-18,.46A203.06,203.06,0,0,0,107.92,256q3.1-12.49,3.79-30.83Q130.66,230.71,157.52,231.18Z" fill="#39b54a"/><path d="M192.81,201.24q10.6,2.17,12,15.17.92,15.12-11.42,17.29l.73-.08q17.18-1.88,19.35,18l.09.86q.89,18-16.34,19.9l-.73.08-33,3.16q-.3-18-2.22-35.66a313.18,313.18,0,0,0-6.3-35.65Zm-22,12.28,2,17.9q19.81-5.71,18.91-14a7.87,7.87,0,0,0-.14-.86q-1.49-5.95-12.12-4.79A59,59,0,0,0,170.82,213.52Zm3,30.89,2.14,19.14q26-2.84,25.94-13.47l0-.16Q200.94,241.5,173.8,244.41Z" fill="#006837"/><path d="M218.47,181.39a221.19,221.19,0,0,0,39.74,1.75l-.33,14.14-26.44-5-1.17,15.39,11.84.12.74,6.33-12.61-.27-1.87,21.06,35.07,3.29L260,253.67l-46.24-10a183.78,183.78,0,0,0,4.67-24.19Q220.54,202.77,218.47,181.39Z" fill="#009245"/><path d="M326.48,261.75H311.73l-4.39-25.39-22.12-2.93-8.79,20.26-12.55-5.91,35.64-70.41Zm-29.1-60-7.71,19.14,15.09,3.32Z" fill="#39b54a"/><path d="M378.81,204.74,380.15,218l-25.68,7.83q.15,1.11.34,2.17A85.75,85.75,0,0,0,369,262.2l-18.83,8.69a57.27,57.27,0,0,0-.53-16.77,67.62,67.62,0,0,0-8.31-22l-.71-1.21-20.12,13.38-.59-14.08Q346,223.08,378.81,204.74Z" fill="#006837"/><path d="M205.56,277.28l3.6.72,35.19,8.91,2.16.36,4.59,1.35,1.35.18,1.71.54.36.36v.9Q242,339.11,238.23,354.68l-.63,1.89-1.17,5.4-.36,1-.72.54q-18-4.23-22.41-5.76-8.73-1.89-15.75-3.87l-2.16-.36q-3.87-1.17-6.57-1.71a2.91,2.91,0,0,1-1.89-.81l.54-3,.63-1.89v-.81l.72-1.89,1-4.86,1.71-5.58,2.16-9.45.54-1.26.36-2.16.45-1.17,1.71-6.75.72-3.78,1.17-3.33.27-2.25,4.41-16.56.18-1.53a49.12,49.12,0,0,0,1.71-6.39Zm-14.49,70.29v.27l5.22.9,10.35,2.34,3.15.54,6.3,1.44,10,3.42,3.87.81,2.52.9h1l1.17-8.82a103.67,103.67,0,0,1,2.52-10.8l1.17-7.29,1.71-8.1,1-3.78A43.62,43.62,0,0,1,243.9,313l3.87-10.62.9-2.43,1-5.94v-.72l-6.93-1.17-3.24-.9L230,289.88l-8.82-2.16q-8.91-3.24-10-3.06l-1.44-.63H209l-.36.45-1.53,8.64-2,8.46L200.34,317l-2.52,10.53-1.89,5.85-3.51,9-.18,1.71Q191.7,344.42,191.07,347.57ZM205.65,316l-2.16-1.35-.36-.72c.24-.48.54-.72.9-.72v-.45h-.54v-.45l1.17-.27.9.18h1.17l1.71-4.14,1.44-5.67,2.07-6.12v-.45l-.36-.36-1.17-.27-1-1.35q0-.45,1.53-1h1.53l.81-1.8.81-1.08,3.15.18c.48.24.72.54.72.9a5.14,5.14,0,0,1-.9,2.07v.81l3.87.63,5.13,1.17,3.69,1.17,2.52.36.9-.18a9,9,0,0,0,4,.9l.81.63q3.42,1,3.42,1.35.54,1.26-1.71,2l-1.89-.54h-1.08q-6.93-1.53-14.67-3.87l-3.6-.54-.81-.27h-1.44l-.9,3.33-1.17,3.24-.81,3.69-2.25,5.58v.63a52.12,52.12,0,0,0,8,3.06,47.34,47.34,0,0,0,13.5,1.35l3.42,2.52q.18.9-1,1.26l-3.78.36-3.42-.36L221.4,320l-3.51-1.17-6.48-2.7h-1.08l-.36.45q-1.17,4.77-3.06,16.47l-1.17,4.5-1.17,3.24a5.83,5.83,0,0,0-.36,2.52l-.45.54-.81-.18h-1.08l-.54.36a1.87,1.87,0,0,1-2.43-1.35,49.24,49.24,0,0,1,2.43-8.19l2.7-12.87,1.17-2.7.45-2.07Zm26.19.27H233v.54l-.45-.18-.27.18-.54-.36Z" fill="#00a99d"/><path d="M299.16,276.38q2.07-.36,2.07.9l.36,3.15.72,2.79q1.26,8.82,3.33,19l.36,3.33.36.9.54,4,.9,3.87.27,3.15,1.08,4.77.18,2.25.36.9.9,4.59v1.35l.36.72v1.08l3.69,20q.09,1-.36,1.17l-3.15.81-.27-.18h-.45l-.72.36-6.3.9q-.54.54-13.14,2.43l-.54.18-.9.9-1.62.54q-2.16.18-2.16-.54h-1l-2.25.72-4.41.54-1.71.54-2.52.18-1.53.45h-1.08l-7,1.44-1.08-.54L249.21,287.9l-.27-.9q-.36-1.44.81-1.62l5.13-.72.72-.36,4.68-.72.9-.36h1.26l7.38-1.53Q278.73,280.43,299.16,276.38ZM253,289.79v1.53q4.05,18.9,4.59,24.75,2.61,8.55,4.59,16.47l1.89,12.06v2.52l.36,4.32.54,2.7v2.25l.36.9-.54.81v.27l.54,1h.81l.45-.36,3.69-.63,1.44-1.08,2.25-.36,1.17.18h1q.81-.54,14.49-1.8,11.43-2.43,13-2.25l.81-.36,6-.9.36-.36v-.18l-.54-1.8L310,346q-.9-1.53-2-10.89l-1.35-6.3-2-12.6q-.45-.9-1.71-10.17a7.33,7.33,0,0,0-.9-2.88l-.54-4.5q-1.53-5.85-3.33-17.19h-1.26l-22,4.86q-.36.54-18.45,2.7Zm12,3.06q1.26-.18,1.26.36a43.55,43.55,0,0,1,3.33,12.69l1.53,4.68a65.71,65.71,0,0,1,1.8,13l.81,4A14,14,0,0,0,279,332.9l1.53.72,4.41.63h3.42q2.61-1,2.61-1.53l.9-1.26,1.08-2.43v-4.14l-.36-4-3.15-16.47-.18-4.23-1.8-9.81.18-5,.72-.72,1.53.54h1l1.44,1.35-.18,1.17v1.35a3.67,3.67,0,0,1,.36,2.43l1.53,5.94q.9,5.49.54,6.66l.72,4.77,2.25,11.25.54,6.3a12.09,12.09,0,0,1-2.25,7.65q-2.61,2.43-10.35,3.6a36,36,0,0,1-9.36-1.17l-3.87-2.61-2.16-2.7-1-2.79L268,323.18l-.36-5.49-.72-4.41q-2.79-8-2.79-13.32l-1.71-5a1.43,1.43,0,0,0,1-1.17Zm31.95,48.6q.36-.18,1.53,2.7.18.9-.54,1.08a27.18,27.18,0,0,1-7.47.9q-12.51,2.61-15.84,2.61L271.26,350l-.81-.54v-.81l1.26-1.89a5.37,5.37,0,0,1,3-.9l.9-.54,4.23-.72,4.68-1.35Z" fill="#00a99d"/><path d="M325.89,278.63H329l35,2.52,9,.36,5.13.36q1.44,0,1.62.9Q376,338.93,375.66,340l-.18,6.3-.36,1.62-.54,10.53-.36,4a1,1,0,0,1-.81,1.08l-19-1.08-5.31-.54-13.68-.72-2.34-.36-6.21-.18-6.48-.54-.72-.72.54-10.08,1.26-14.76v-3.06l.36-2.07,1.44-23.31.36-2.16v-3.06l1.26-14.94v-3.15l.36-3.6Zm-2.52,76.77v1.17h5.58l3.24-.36,3.15.18h3.87c.48-.12.72-.3.72-.54a52.88,52.88,0,0,1,16.38,2l3.42.54,8.28.54h1.35l.36-.9.9-5.58.36-5.31.9-5.76.36-7.38v-2.43l-.54-5.85v-4.41l1.08-7.38.18-4.5.54-3,.45-2.34q.36-4.32,0-5.22.72-7.2.72-10.8l.36-1.26v-.27L373,286l-6.12-.54-9.72-.18-1.62-.36-9.27-.81L340.29,283l-6.12-.54h-3.33l-1.62.18-.36.36a140.94,140.94,0,0,1,0,14.31l-1,4.86v2.34l-.36,1.8q-1.08,16.29-1.62,18.81l-.72,7.83-1.26,9.18a89.74,89.74,0,0,0,0,11.43Zm9.72-50.85-.54-2.16-.54-5,.18-5a.85.85,0,0,1,.72-.9l.09.18h.63l.54-.36v-.63l-1.8-4.86v-.45l.72-.63.81.45a2.26,2.26,0,0,1,2,0q1.08.36,3.06,5.22l.9,3.78q2.16,5.22,5,14.13a166.81,166.81,0,0,1,4.5,19.62Q350.46,330,354,342.8h.45a64.25,64.25,0,0,1,3.42-11.34l1.08-5.67,1.08-9.54,2.52-9.81q2.52-16,2.34-17.64.18-.72,2.52-.9l.09.18h1l.54-.36q1.17-.18,1.53,1.8v1.89l-2.16,13.68a10.33,10.33,0,0,0-.9,4.23l-1.62,5.4a54.59,54.59,0,0,0-1.44,10.44l-.9,4.32-3.78,11.61a53,53,0,0,1-2,9.54q-.54,2.07-3.42,3.33l-2.61-.18-1.35-1.71-1.08-5.76-6.12-21.51-1.44-8.46-2.88-10.71h-.45l-.18,6.93.18,4-.54,4.5-1.44,6.84-.36,9.45-1.08,5.4L334.8,347q-.54,2.52-1.26,3.06l-3.24.9q-.81.54-1.8-1.26v-.81l.45-.36.36-1.62q-.63-.72,1.08-8.64l.72-3.42.18-5.31-.18-2.7,1.62-8.64a49.62,49.62,0,0,1,.36-9Z" fill="#00a99d"/></svg>